<svg width="707" height="262" viewBox="0 0 707 262" fill="none" xmlns="http://www.w3.org/2000/svg">
<path d="M400.021 190.29C404.667 183.207 406.989 174.763 406.989 164.958C406.989 150.038 403.384 138.162 396.173 129.331C388.963 120.5 377.675 116.091 362.31 116.105H314.08C311.978 116.099 309.896 116.51 307.953 117.312C306.01 118.114 304.243 119.293 302.755 120.78C301.267 122.268 300.087 124.035 299.281 125.981C298.476 127.926 298.061 130.012 298.061 132.118V213.554L261.858 123.047C261.033 120.992 259.601 119.239 257.754 118.022C255.907 116.805 253.734 116.183 251.524 116.238H244.659C249.332 112.012 253.064 106.847 255.612 101.079C258.159 95.3106 259.466 89.0692 259.446 82.7611V3.80391C259.464 3.02792 259.241 2.2655 258.81 1.6211C258.378 0.976691 257.758 0.48181 257.035 0.204191C256.199 -0.0897299 255.285 -0.0656288 254.466 0.271893C253.646 0.609415 252.98 1.23683 252.592 2.0349L229.185 50.2197C228.258 52.2028 226.902 53.9543 225.216 55.3472C223.53 56.7401 221.555 57.7394 219.436 58.2727C216.279 59.0205 212.962 58.6754 210.026 57.2935C207.089 55.9116 204.706 53.5742 203.264 50.6619L179.498 2.08631C179.104 1.28323 178.43 0.65252 177.604 0.313324C176.778 -0.0258714 175.856 -0.0500474 175.013 0.24534C174.287 0.527265 173.665 1.02749 173.233 1.67747C172.802 2.32744 172.581 3.09535 172.602 3.87591V82.4937C172.604 88.8873 173.953 95.2084 176.561 101.043C179.17 106.878 182.978 112.094 187.738 116.352H180.821V116.454C178.382 116.358 175.971 117.016 173.917 118.339C171.863 119.661 170.265 121.585 169.339 123.849L134.9 207.805V128.683C134.902 127.032 134.578 125.396 133.949 123.87C133.319 122.344 132.396 120.958 131.231 119.789C130.067 118.621 128.684 117.695 127.162 117.062C125.64 116.43 124.008 116.105 122.36 116.105H114.941C112.524 116.105 110.159 116.805 108.129 118.121C106.099 119.436 104.492 121.311 103.499 123.52L67.5835 203.639L31.606 123.52C30.6149 121.31 29.0077 119.435 26.9777 118.119C24.9477 116.803 22.5816 116.104 20.1642 116.105H12.5398C10.8922 116.105 9.26073 116.43 7.73866 117.062C6.2166 117.695 4.83376 118.621 3.6692 119.789C2.50464 120.958 1.58117 122.344 0.951594 123.87C0.322014 125.396 -0.00134409 127.032 4.19909e-06 128.683V249.16C3.08702e-06 252.495 1.32083 255.693 3.67221 258.051C6.02358 260.41 9.21309 261.736 12.5398 261.739H15.526C18.8438 261.723 22.0201 260.39 24.3604 258.033C26.7007 255.676 28.0145 252.486 28.0144 249.16V184.283C28.014 183.432 28.3049 182.606 28.8386 181.943C29.3723 181.28 30.1166 180.821 30.9472 180.642C31.7779 180.462 32.6448 180.574 33.4034 180.958C34.1619 181.342 34.7662 181.974 35.1155 182.751L56.0802 229.259C57.0749 231.466 58.6833 233.338 60.7127 234.651C62.742 235.964 65.1063 236.663 67.522 236.664C69.9402 236.663 72.3066 235.961 74.3364 234.644C76.3663 233.327 77.9731 231.45 78.9638 229.239L99.7232 182.864C100.069 182.082 100.672 181.444 101.432 181.055C102.191 180.666 103.061 180.552 103.896 180.73C104.73 180.909 105.477 181.37 106.012 182.035C106.548 182.701 106.838 183.531 106.835 184.386V243.905C106.835 248.639 108.71 253.18 112.048 256.53C115.386 259.88 119.915 261.764 124.639 261.77H134.9V261.698C137.558 261.524 140.114 260.603 142.274 259.041C144.434 257.478 146.11 255.337 147.112 252.863L189.39 147.71C190.269 145.519 191.776 143.638 193.721 142.305C195.666 140.972 197.962 140.248 200.319 140.223L231.473 139.904C233.912 139.871 236.302 140.589 238.321 141.961C240.339 143.333 241.889 145.293 242.761 147.577L282.946 252.637C283.971 255.323 285.786 257.633 288.149 259.264C290.513 260.895 293.314 261.768 296.183 261.77H296.378C296.945 261.769 297.51 261.731 298.071 261.657V261.77H308.282C313.018 261.767 317.56 259.879 320.908 256.522C324.256 253.164 326.137 248.611 326.137 243.864V218.563C326.137 217.243 326.661 215.977 327.592 215.043C328.523 214.109 329.787 213.585 331.104 213.585H348.138C352.017 213.585 354.798 214.264 356.461 215.642C358.123 217.02 359.652 219.345 361.037 222.656L373.413 253.274C374.424 255.78 376.159 257.926 378.395 259.438C380.631 260.95 383.266 261.758 385.963 261.759C388.175 261.759 390.354 261.216 392.308 260.177C394.263 259.138 395.934 257.635 397.175 255.8C398.416 253.964 399.19 251.852 399.428 249.648C399.667 247.443 399.363 245.214 398.544 243.154L389.729 221.042C388.616 217.915 387.243 214.887 385.624 211.991C384.205 209.611 382.414 207.475 380.319 205.666C388.386 202.835 395.306 197.435 400.021 190.29ZM372.264 182.946C368.111 186.484 362.358 188.253 355.003 188.253H333.505C332.532 188.253 331.569 188.061 330.67 187.688C329.771 187.315 328.954 186.768 328.266 186.078C327.578 185.389 327.032 184.57 326.66 183.669C326.288 182.768 326.096 181.803 326.096 180.828V148.862C326.096 147.887 326.288 146.921 326.66 146.02C327.032 145.119 327.578 144.301 328.266 143.611C328.954 142.922 329.771 142.375 330.67 142.002C331.569 141.629 332.532 141.436 333.505 141.436H356.666C364.013 141.436 369.486 143.322 373.084 147.093C376.683 150.864 378.486 156.819 378.492 164.958C378.499 173.398 376.423 179.395 372.264 182.946Z" fill="white"/>
<path d="M425.532 139.626H443.233C446.347 139.626 449.333 140.866 451.534 143.072C453.736 145.279 454.973 148.272 454.973 151.392V250.004C454.973 253.123 456.208 256.114 458.408 258.32C460.607 260.526 463.59 261.767 466.702 261.77H471.309C474.421 261.767 477.404 260.526 479.604 258.32C481.803 256.114 483.039 253.123 483.039 250.004V151.392C483.039 148.272 484.275 145.279 486.477 143.072C488.678 140.866 491.664 139.626 494.778 139.626H512.223C515.334 139.626 518.317 138.388 520.517 136.183C522.716 133.979 523.952 130.988 523.952 127.871C523.952 124.752 522.716 121.761 520.517 119.555C518.318 117.348 515.334 116.107 512.223 116.105H425.532C422.418 116.105 419.433 117.344 417.231 119.551C415.029 121.757 413.793 124.75 413.793 127.871C413.795 130.989 415.033 133.979 417.235 136.184C419.436 138.388 422.42 139.626 425.532 139.626Z" fill="#048B9F"/>
<path d="M567.472 130.174C567.472 122.404 561.187 116.105 553.434 116.105C545.681 116.105 539.396 122.404 539.396 130.174V247.7C539.396 255.471 545.681 261.77 553.434 261.77C561.187 261.77 567.472 255.471 567.472 247.7V130.174Z" fill="#048B9F"/>
<path d="M678.934 130.174V197.489C678.936 198.495 678.612 199.475 678.013 200.282C677.414 201.09 676.57 201.681 675.608 201.969C674.646 202.257 673.617 202.226 672.674 201.88C671.732 201.534 670.925 200.892 670.376 200.05L619.663 122.461C618.39 120.514 616.655 118.913 614.613 117.804C612.572 116.695 610.287 116.111 607.964 116.105H605.255C603.411 116.103 601.585 116.466 599.882 117.173C598.178 117.88 596.63 118.916 595.326 120.223C594.022 121.529 592.988 123.081 592.283 124.789C591.578 126.496 591.216 128.326 591.217 130.174V247.7C591.217 251.432 592.696 255.01 595.329 257.649C597.962 260.287 601.532 261.77 605.255 261.77C608.97 261.756 612.529 260.268 615.152 257.631C617.775 254.995 619.25 251.424 619.252 247.7V180.385C619.254 179.382 619.579 178.406 620.178 177.602C620.776 176.798 621.618 176.209 622.577 175.921C623.536 175.634 624.562 175.664 625.503 176.007C626.444 176.349 627.249 176.987 627.8 177.824L678.514 255.403C679.789 257.358 681.531 258.963 683.58 260.074C685.629 261.186 687.923 261.769 690.253 261.77H692.962C696.685 261.77 700.256 260.287 702.888 257.649C705.521 255.01 707 251.432 707 247.7V130.174C707.001 128.326 706.639 126.496 705.934 124.789C705.229 123.081 704.195 121.529 702.891 120.223C701.588 118.916 700.039 117.88 698.336 117.173C696.632 116.466 694.806 116.103 692.962 116.105C691.119 116.105 689.294 116.469 687.592 117.176C685.889 117.883 684.342 118.92 683.039 120.226C681.737 121.533 680.703 123.084 679.999 124.791C679.295 126.498 678.933 128.327 678.934 130.174Z" fill="#048B9F"/>
</svg>
