<?xml version="1.0" encoding="utf-8"?>
<!-- Generator: Adobe Illustrator 27.5.0, SVG Export Plug-In . SVG Version: 6.00 Build 0)  -->
<svg version="1.1" xmlns="http://www.w3.org/2000/svg" xmlns:xlink="http://www.w3.org/1999/xlink" x="0px" y="0px"
	 viewBox="0 0 750 500" style="enable-background:new 0 0 750 500;" xml:space="preserve">
<g id="BACKGROUND">
	<linearGradient id="SVGID_1_" gradientUnits="userSpaceOnUse" x1="375" y1="500" x2="375" y2="-9.094947e-13">
		<stop  offset="0" style="stop-color:#FFFFFF"/>
		<stop  offset="0.1713" style="stop-color:#FFFAF5"/>
		<stop  offset="0.4636" style="stop-color:#FFEEDA"/>
		<stop  offset="0.8393" style="stop-color:#FFDAAE"/>
		<stop  offset="1" style="stop-color:#FFD199"/>
	</linearGradient>
	<rect style="fill:url(#SVGID_1_);" width="750" height="500"/>
</g>
<g id="OBJECTS">
	<g>
		<defs>
			<rect id="SVGID_00000156553578721232875710000010665375589416791206_" width="750" height="500"/>
		</defs>
		<clipPath id="SVGID_00000058551578112629355790000005786117426544503473_">
			<use xlink:href="#SVGID_00000156553578721232875710000010665375589416791206_"  style="overflow:visible;"/>
		</clipPath>
		<path style="opacity:0.54;clip-path:url(#SVGID_00000058551578112629355790000005786117426544503473_);fill:#FFFFFF;" d="
			M340.667,107.313c1.668-15.927,11.988-30.68,26.379-37.707c14.39-7.027,32.371-6.093,45.956,2.386
			c6.914,4.315,12.617,10.344,19.44,14.801c20.813,13.595,48.842,10.377,71.395-0.08c22.553-10.457,41.518-27.159,62.285-40.824
			c20.767-13.665,45.145-24.638,69.778-21.287c13.008,1.77,25.434,7.601,35.108,16.476c9.305,8.536,16.375,19.969,27.724,25.506
			c19.668,9.594,42.347-2.118,63.448-7.914c19.484-5.352,41.167-5.281,59.041,4.141c17.875,9.422,32.297,29.532,29.78,49.581
			L340.667,107.313z"/>
		<path style="opacity:0.54;clip-path:url(#SVGID_00000058551578112629355790000005786117426544503473_);fill:#FFFFFF;" d="
			M-31.769,76.689c0.142-11.292,5.851-22.381,14.959-29.057c9.108-6.676,21.401-8.782,32.212-5.518
			c12.056,3.639,21.671,13.286,33.84,16.528c17.077,4.549,34.684-4.439,49.252-14.442c14.569-10.003,29.211-21.748,46.784-23.624
			c6.461-0.69,12.992,0.022,19.397,1.111c6.017,1.023,12.088,2.423,17.355,5.507c7.773,4.551,13.149,12.459,16.25,20.915
			s3.631,17.56,4.424,26.532L-31.769,76.689z"/>
		<path style="opacity:0.27;clip-path:url(#SVGID_00000058551578112629355790000005786117426544503473_);fill:#FFFFFF;" d="
			M154.032,134.801c16.668-13.709,34.782-28.028,56.289-29.808c26.867-2.223,51.143,15.629,77.694,20.3
			c39.636,6.974,77.761-15.755,111.818-37.197c34.057-21.442,72.944-43.412,112.26-34.814c31.543,6.898,55.65,32.11,85.169,45.193
			c24.354,10.793,52.439,12.935,78.148,5.959c24.69-6.7,46.671-21.321,71.379-27.954C798.673,62.553,859.827,89.535,883.002,138
			L154.032,134.801z"/>
		<path style="opacity:0.27;clip-path:url(#SVGID_00000058551578112629355790000005786117426544503473_);fill:#FFFFFF;" d="
			M-408.968,99.362c16.668-13.709,34.781-28.028,56.289-29.808c26.867-2.223,51.143,15.629,77.694,20.3
			c39.636,6.974,77.761-15.755,111.818-37.197c34.057-21.442,72.944-43.412,112.26-34.814c31.543,6.898,55.65,32.11,85.169,45.193
			c24.354,10.793,52.439,12.935,78.148,5.959c24.69-6.7,46.671-21.321,71.379-27.954c51.884-13.928,113.038,13.054,136.213,61.519
			L-408.968,99.362z"/>
		
			<ellipse transform="matrix(0.2371 -0.9715 0.9715 0.2371 10.3387 342.4935)" style="clip-path:url(#SVGID_00000058551578112629355790000005786117426544503473_);fill:#FFF2D7;" cx="223.235" cy="164.664" rx="72.524" ry="72.524"/>
		<path style="clip-path:url(#SVGID_00000058551578112629355790000005786117426544503473_);fill:#FFC880;" d="M165.002,257.364
			l97.599-70.661c8.113-5.874,18.964-6.285,27.498-1.043L416.002,263h81l64.23-50.581c9.194-7.24,22.2-7.06,31.19,0.432l8.58,7.15
			l50.779-41.547c8.914-7.293,21.677-7.482,30.804-0.457l47.417,36.504V384h-565V257.364z"/>
		<path style="clip-path:url(#SVGID_00000058551578112629355790000005786117426544503473_);fill:#FFBB69;" d="M-7.998,262l119-80
			l126,75.364l26-21.364l99,59l87.515-79.942c9.262-8.46,23.509-8.249,32.516,0.482L564.002,295l194-157v375h-766V262z"/>
		<path style="clip-path:url(#SVGID_00000058551578112629355790000005786117426544503473_);fill:#FE972E;" d="M452.002,337
			l108.424-76.072c9.242-6.484,21.645-6.129,30.5,0.873L619.002,284l154-118v188h-321V337z"/>
		<g style="clip-path:url(#SVGID_00000058551578112629355790000005786117426544503473_);">
			<path style="fill:#FCB448;" d="M-31.998,253.852l147.701-99.654c7.248-4.89,16.819-4.567,23.721,0.801l57.763,44.927
				l19.037-12.896c6.583-4.459,15.168-4.646,21.939-0.478L510.15,354H-31.998V253.852z"/>
			<path style="fill:#F9A63A;" d="M452.002,354l-159.571-94.534c-1.627-0.964-3.225,1.285-1.779,2.504l59.35,50.03l-176.241-99.576
				c-4.445-2.511-8.988,3.127-5.589,6.936l64.83,72.64l-61.359-21.439c-13.581-4.745-28.617-2.64-40.372,5.653L21.002,354H452.002z"
				/>
		</g>
		
			<rect x="-7.998" y="354" style="clip-path:url(#SVGID_00000058551578112629355790000005786117426544503473_);fill:#F77C2E;" width="766" height="159"/>
		<polygon style="clip-path:url(#SVGID_00000058551578112629355790000005786117426544503473_);fill:#FCB24F;" points="758.002,384 
			-7.998,425 -7.998,462 758.002,484 		"/>
		<polygon style="clip-path:url(#SVGID_00000058551578112629355790000005786117426544503473_);fill:#E64B2D;" points="-7.998,462 
			788.002,484 788.002,527 -7.998,527 		"/>
		<g style="clip-path:url(#SVGID_00000058551578112629355790000005786117426544503473_);">
			<path style="fill:#F77C2E;" d="M637.109,343.815c4.226-4.671,5.257-13.061,1.133-17.843c-0.859-0.996-1.906-1.823-2.546-3.003
				c-1.139-2.099-0.699-4.883,0.489-6.948c1.188-2.065,3.004-3.575,4.761-5.067c3.566-3.028,7.089-6.215,9.8-10.178
				c2.711-3.964,4.574-8.816,4.392-13.779c-0.182-4.962-2.686-9.96-6.787-12.004c-2.508-1.25-5.472-1.393-7.695-3.184
				c-3.734-3.008-3.719-8.99-4.124-14.073c-0.51-6.416-2.28-12.706-5.154-18.311c-1.453-2.833-3.243-5.556-5.716-7.331
				c-3.545-2.544-8.069-2.831-12.251-2.149c-6.067,0.989-11.988,3.977-16.06,9.039c-4.073,5.062-6.077,12.308-4.506,18.853
				c1.056,4.402,3.615,8.339,4.021,12.87c0.094,1.051,0.061,2.153-0.356,3.104c-1.162,2.653-4.412,2.844-7.014,3.504
				c-5.397,1.368-9.68,6.304-11.687,12.001c-2.007,5.697-1.985,12.053-1.035,18.075c0.379,2.401,0.952,4.886,2.434,6.693
				c3.28,3.998,9.8,3.339,12.604,7.757c2.761,4.35,0.278,11.246,3.555,15.134c2.403,2.851,6.512,2.433,9.885,3.572
				c5.724,1.932,9.731,7.501,15.834,8.747C626.492,350.397,633.25,348.08,637.109,343.815z"/>
			<polygon style="fill:#B75D3D;" points="610.963,374.313 613.11,323.116 597.65,307.473 592.068,310.791 590.994,308.895 
				597.006,305.576 592.927,292.54 594.215,291.355 597.006,299.414 598.509,292.54 599.798,292.54 597.865,302.732 
				599.368,306.761 613.11,320.746 614.828,276.897 608.387,270.26 608.816,268.838 614.828,275 622.129,264.809 623.202,266.705 
				616.331,277.608 616.975,311.028 635.227,292.54 636.301,295.029 631.577,299.414 636.301,299.414 636.301,301.31 
				630.073,301.31 617.62,314.82 618.049,335.441 624.491,334.019 624.706,335.678 618.479,338.048 619.123,374.313 			"/>
		</g>
		<g style="clip-path:url(#SVGID_00000058551578112629355790000005786117426544503473_);">
			<path style="fill:#B8303F;" d="M200.128,335.251c5.413-5.983,6.732-16.729,1.451-22.853c-1.1-1.276-2.442-2.335-3.261-3.846
				c-1.459-2.689-0.896-6.254,0.627-8.9c1.522-2.645,3.848-4.579,6.098-6.489c4.568-3.879,9.08-7.96,12.552-13.036
				c3.473-5.077,5.858-11.292,5.625-17.648c-0.233-6.356-3.44-12.757-8.692-15.375c-3.212-1.601-7.008-1.785-9.855-4.078
				c-4.783-3.852-4.764-11.514-5.281-18.025c-0.653-8.217-2.921-16.274-6.601-23.453c-1.861-3.629-4.154-7.117-7.321-9.39
				c-4.54-3.258-10.335-3.626-15.691-2.752c-7.771,1.267-15.354,5.094-20.57,11.577c-5.216,6.483-7.783,15.764-5.772,24.146
				c1.353,5.638,4.63,10.68,5.15,16.484c0.121,1.346,0.078,2.757-0.455,3.975c-1.488,3.398-5.651,3.643-8.984,4.488
				c-6.913,1.753-12.398,8.074-14.968,15.371c-2.571,7.297-2.543,15.438-1.325,23.15c0.486,3.076,1.219,6.258,3.118,8.573
				c4.201,5.121,12.552,4.277,16.143,9.935c3.536,5.572,0.356,14.404,4.554,19.384c3.078,3.651,8.341,3.116,12.661,4.575
				c7.331,2.475,12.464,9.608,20.28,11.204C186.53,343.682,195.186,340.714,200.128,335.251z"/>
			<polygon style="fill:#B75D3D;" points="166.64,374.313 169.391,308.74 149.589,288.704 142.439,292.954 141.064,290.525 
				148.764,286.275 143.539,269.579 145.189,268.061 148.764,278.382 150.689,269.579 152.34,269.579 149.865,282.632 
				151.79,287.793 169.391,305.704 171.591,249.542 163.34,241.042 163.89,239.221 171.591,247.114 180.941,234.06 182.316,236.489 
				173.516,250.453 174.341,293.258 197.717,269.579 199.092,272.766 193.042,278.382 199.092,278.382 199.092,280.811 
				191.117,280.811 175.166,298.115 175.716,324.526 183.966,322.704 184.242,324.829 176.266,327.865 177.091,374.313 			"/>
		</g>
		<g style="clip-path:url(#SVGID_00000058551578112629355790000005786117426544503473_);">
			<path style="fill:#B8303F;" d="M19.418,322.606c-1.232-1.688-2.319-3.53-2.782-5.567c-1.131-4.972,1.652-10.039,5.152-13.746
				c3.501-3.708,7.809-6.651,10.894-10.71c3.122-4.108,4.836-9.265,4.794-14.424c-0.028-3.371-0.778-6.691-1.084-10.048
				c-0.808-8.845,1.789-18.29,8.254-24.379c6.465-6.09,17.06-7.961,24.525-3.149c1.519,0.979,2.895,2.211,3.895,3.717
				c2.226,3.354,2.374,7.649,3.867,11.387c2.584,6.468,8.933,10.656,15.382,13.285c6.449,2.63,13.367,4.139,19.505,7.431
				c6.137,3.293,11.631,8.989,12.079,15.94c0.288,4.47-1.67,9.015-5.071,11.93c-4.127,3.537-9.896,4.579-14.223,7.869
				c-10.911,8.297-8.782,27.193-19.961,35.125c-3.772,2.676-8.575,3.614-13.193,3.355c-4.618-0.258-9.1-1.631-13.439-3.232
				C44.245,342.312,28.31,334.788,19.418,322.606z"/>
			<polygon style="fill:#B75D3D;" points="61.253,374.952 65.208,312.813 57.297,298.803 49.715,297.485 49.715,295.672 
				57.462,296.661 54,284.052 55.649,284.052 59.44,298.803 65.208,308.858 68.175,277.871 71.966,270.124 73.285,271.607 
				69.494,277.871 75.098,275.728 75.098,277.871 70.153,279.025 70.483,323.362 83.174,308.034 83.174,298.803 84.328,298.803 
				84.328,308.034 88.613,301.935 89.438,303.583 84.987,310.176 90.591,308.528 90.591,310.176 82.68,311.907 71.142,328.472 
				71.801,374.952 			"/>
		</g>
		<g style="clip-path:url(#SVGID_00000058551578112629355790000005786117426544503473_);">
			<path style="fill:#F77C2E;" d="M105.983,346.515c-3.44-4.988-2.656-11.801-5.213-17.294
				c-3.276-7.037-11.129-10.425-17.402-14.998c-5.849-4.264-10.645-9.962-13.849-16.452c-2.458-4.98-3.996-10.606-3.154-16.096
				c0.842-5.49,4.418-10.762,9.678-12.546c3.397-1.152,7.155-0.807,10.568-1.912c6.944-2.247,10.573-9.593,14.508-15.74
				c4.703-7.346,11.204-14.035,19.561-16.534s18.689,0.335,22.769,8.044c5.124,9.683-0.763,23.019,5.719,31.85
				c2.978,4.057,7.892,6.095,12.1,8.855c13.325,8.742,19.836,26.659,15.231,41.916c-1.049,3.477-2.64,6.843-5.058,9.553
				c-2.199,2.464-5.004,4.306-7.875,5.938c-10.454,5.944-21.429,8.575-33.219,10.167C121.78,352.425,112.035,355.29,105.983,346.515
				z"/>
			<polygon style="fill:#B75D3D;" points="119.154,387.128 121.952,326.687 101.806,308.22 94.53,312.137 93.131,309.898 
				100.966,305.981 95.65,290.591 97.328,289.192 100.966,298.706 102.925,290.591 104.604,290.591 102.085,302.623 104.044,307.38 
				121.952,323.889 124.191,272.123 115.796,264.288 116.356,262.609 124.191,269.884 133.705,257.852 135.104,260.091 
				126.15,272.962 126.989,312.417 150.774,290.591 152.173,293.529 146.017,298.706 152.173,298.706 152.173,300.944 
				144.058,300.944 127.829,316.894 128.388,341.238 136.783,339.559 137.063,341.518 128.948,344.316 129.787,387.128 			"/>
		</g>
		<g style="clip-path:url(#SVGID_00000058551578112629355790000005786117426544503473_);">
			<path style="fill:#F77C2E;" d="M280.064,323.587c1.156-1.584,2.177-3.314,2.612-5.227c1.062-4.668-1.551-9.425-4.837-12.906
				c-3.287-3.481-7.332-6.244-10.229-10.056c-2.931-3.857-4.54-8.699-4.501-13.543c0.026-3.165,0.73-6.282,1.018-9.434
				c0.759-8.304-1.679-17.172-7.75-22.89c-6.07-5.718-16.017-7.474-23.026-2.957c-1.426,0.919-2.718,2.076-3.657,3.49
				c-2.09,3.149-2.229,7.181-3.631,10.691c-2.426,6.073-8.387,10.004-14.442,12.473c-6.055,2.469-12.551,3.886-18.313,6.977
				c-5.762,3.091-10.92,8.44-11.341,14.966c-0.271,4.197,1.568,8.464,4.761,11.201c3.874,3.321,9.292,4.299,13.354,7.388
				c10.245,7.79,8.245,25.531,18.741,32.979c3.541,2.513,8.051,3.393,12.387,3.15c4.335-0.243,8.544-1.531,12.618-3.034
				C256.754,342.089,271.715,335.025,280.064,323.587z"/>
			<polygon style="fill:#B75D3D;" points="240.786,372.734 237.072,314.393 244.5,301.239 251.618,300.001 251.618,298.299 
				244.345,299.227 247.595,287.389 246.047,287.389 242.488,301.239 237.072,310.679 234.286,281.586 230.727,274.312 
				229.489,275.705 233.048,281.586 227.787,279.574 227.787,281.586 232.429,282.669 232.12,324.297 220.204,309.905 
				220.204,301.239 219.12,301.239 219.12,309.905 215.097,304.18 214.323,305.727 218.501,311.917 213.24,310.37 213.24,311.917 
				220.668,313.542 231.501,329.095 230.882,372.734 			"/>
		</g>
		<g style="clip-path:url(#SVGID_00000058551578112629355790000005786117426544503473_);">
			<path style="fill:#F77C2E;" d="M762.683,319.399c1.157-1.584,2.177-3.314,2.612-5.227c1.062-4.668-1.551-9.425-4.838-12.906
				c-3.287-3.481-7.332-6.244-10.229-10.056c-2.931-3.857-4.54-8.699-4.501-13.543c0.026-3.165,0.73-6.282,1.018-9.434
				c0.759-8.304-1.68-17.172-7.75-22.889c-6.07-5.718-16.017-7.474-23.026-2.957c-1.426,0.919-2.718,2.076-3.657,3.49
				c-2.09,3.149-2.229,7.181-3.631,10.691c-2.426,6.073-8.387,10.005-14.442,12.474c-6.055,2.469-12.551,3.886-18.313,6.977
				c-5.762,3.091-10.92,8.44-11.341,14.966c-0.271,4.197,1.568,8.464,4.761,11.201c3.875,3.321,9.292,4.299,13.354,7.388
				c10.244,7.79,8.245,25.531,18.741,32.979c3.541,2.513,8.051,3.393,12.387,3.15c4.335-0.243,8.544-1.531,12.618-3.034
				C739.373,337.9,754.334,330.836,762.683,319.399z"/>
			<polygon style="fill:#B75D3D;" points="723.405,368.546 719.691,310.204 727.119,297.05 734.237,295.812 734.237,294.11 
				726.964,295.039 730.214,283.2 728.666,283.2 725.107,297.05 719.691,306.49 716.905,277.397 713.346,270.124 712.108,271.516 
				715.667,277.397 710.406,275.385 710.406,277.397 715.048,278.48 714.739,320.108 702.823,305.716 702.823,297.05 
				701.739,297.05 701.739,305.716 697.716,299.991 696.942,301.538 701.12,307.728 695.859,306.181 695.859,307.728 
				703.287,309.353 714.12,324.906 713.5,368.546 			"/>
		</g>
		<path style="clip-path:url(#SVGID_00000058551578112629355790000005786117426544503473_);fill:#E64B2D;" d="M150.472,408.987
			c2.1-1.317,4.582-0.225,6.668,0.877c-3.306-5.953-3.153-24.922,7.987-21.94c4.857,1.3,5.889,7.543,5.861,11.793
			c3.804-3.053,9.381-7.527,14.458-4.514c5.709,3.388,3.82,12.228,0.315,16.503c2.053-1.175,4.607,0.141,5.657,2.37
			s0.863,5.051,0.145,7.548c-0.774,2.693-2.057,4.951-3.71,6.767h-29.97c-4.344-3.052-7.855-7.225-9.418-12.207
			C147.59,413.391,147.79,410.669,150.472,408.987z"/>
		<path style="clip-path:url(#SVGID_00000058551578112629355790000005786117426544503473_);fill:#FE972E;" d="M493.213,487.061
			c4.619-9.478,14.718-15.455,25.11-17.233c10.393-1.778,21.081,0.131,31.205,3.076c-3.642-11.903-7.111-25.506-0.723-36.19
			c4.952-8.282,15.113-12.581,24.752-12.12c9.639,0.461,18.7,5.099,26.109,11.281c0.659-18.358,16.55-34.92,34.866-36.336
			c18.315-1.416,36.564,12.507,40.036,30.546c8.243-13.847,23.447-22.716,39.32-25.495c15.873-2.779,32.33,0.038,47.46,5.583
			c7.409,2.716,14.701,6.158,20.541,11.465c14.773,13.425,17.28,35.528,17.069,55.489c-0.127,11.982-1.082,24.592-7.675,34.598
			c-7.845,11.907-22.034,17.747-35.56,22.26c-56.095,18.715-115.928,26.148-174.897,21.726c-5.225-0.392-10.536-0.897-15.382-2.89
			c-4.608-1.894-8.569-5.039-12.816-7.643c-8.205-5.032-17.618-8.079-27.215-8.808c-10.208-0.775-22.61-0.027-29.092-9.577
			C489.619,516.915,488.059,497.636,493.213,487.061z"/>
		<g style="clip-path:url(#SVGID_00000058551578112629355790000005786117426544503473_);">
			<path style="fill:#FCB448;" d="M353.206,184.975c-14.483-10.515-24.204-3.769-24.204-3.769c14.483-6.547,24.204,7.34,24.204,7.34
				s9.721-13.887,24.204-7.34C377.41,181.206,367.689,174.461,353.206,184.975z"/>
			<path style="fill:#FCB448;" d="M329.002,163.307c-14.483-10.515-24.204-3.769-24.204-3.769
				c14.483-6.547,24.204,7.341,24.204,7.341s9.721-13.888,24.204-7.341C353.206,159.537,343.485,152.792,329.002,163.307z"/>
			<path style="fill:#FCB448;" d="M392.381,157.083c-20.516-14.895-34.288-5.34-34.288-5.34
				c20.516-9.275,34.288,10.399,34.288,10.399s13.771-19.673,34.288-10.399C426.669,151.744,412.898,142.188,392.381,157.083z"/>
		</g>
		<path style="clip-path:url(#SVGID_00000058551578112629355790000005786117426544503473_);fill:#F77C2E;" d="M233.002,448h62
			C295.002,448,265.019,427.395,233.002,448z"/>
		<path style="clip-path:url(#SVGID_00000058551578112629355790000005786117426544503473_);fill:#F77C2E;" d="M517.006,411.028
			h40.997C558.002,411.028,538.176,397.403,517.006,411.028z"/>
		<path style="clip-path:url(#SVGID_00000058551578112629355790000005786117426544503473_);fill:#E64B2D;" d="M354.502,385.955
			h35.501C390.002,385.955,372.834,374.157,354.502,385.955z"/>
		<path style="clip-path:url(#SVGID_00000058551578112629355790000005786117426544503473_);fill:#FCB448;" d="M591.248,453.383
			c1.579,5.298,4.997,7.163,8.836,7.297c6.331,0.225,13.846-4.251,16.216-5.77c0.106-0.073,0.187-0.167,0.244-0.271
			c1.909,0.693,3.815,1.399,5.712,2.129c-3.398,0.382-9.799,3.486-13.647,6.882l-0.008,0.013c-3.154,2.776-4.58,5.739-1.305,7.571
			c3.354,1.88,6.092,1.597,8.293,0.209l0.008-0.013c5.048-3.201,7.263-12.199,7.71-14.249c4.369,1.706,8.68,3.556,12.865,5.665
			c-4.128,0.599-12.884,6.355-16.819,11.612c-2.478,3.297-3.041,6.387,0.63,7.864c3.898,1.579,6.919,1.07,9.242-0.55
			c6.114-4.253,7.415-16.294,7.61-18.594c1.121,0.575,2.236,1.164,3.337,1.78c3.904,1.947,7.547,4.355,11.278,6.603
			c0.19,0.123,0.377,0.251,0.566,0.376c-3.976,0.326-13.103,6.254-17.144,11.652c-2.478,3.297-3.041,6.387,0.63,7.864
			c3.898,1.579,6.919,1.07,9.242-0.55c6.256-4.352,7.472-16.854,7.621-18.733c1.505,1.008,2.98,2.063,4.476,3.083
			c0.892,0.625,1.799,1.229,2.679,1.87l2.587,1.996c1.567,1.185,3.109,2.403,4.632,3.645c-3.836,0.094-13.256,6.151-17.38,11.66
			c-2.478,3.297-3.041,6.387,0.63,7.864c3.898,1.579,6.919,1.07,9.242-0.55c6.447-4.484,7.542-17.621,7.632-18.874
			c5.183,4.234,10.107,8.785,14.743,13.607c0.369,0.383,0.732,0.773,1.098,1.159c-3.325,0.864-9.206,4.784-12.544,8.648
			l-0.006,0.014c-2.751,3.177-3.763,6.304-0.271,7.678c3.577,1.41,6.252,0.76,8.245-0.912l0.006-0.014
			c4.094-3.452,5.307-11.208,5.635-14.289c5.22,5.599,10.106,11.549,14.316,17.868l0.025,0.037l0.004,0.006
			c0.24,0.352,0.719,0.444,1.072,0.204c0.352-0.24,0.444-0.719,0.204-1.072c-4.512-6.637-9.65-12.718-15.152-18.466
			c1.99-1.262,9.398-6.291,10.675-11.994l0.01-0.012c0.562-2.54-0.097-5.213-3.001-7.733c-2.832-2.462-5.138-0.119-6.683,3.788
			l-0.01,0.012c-1.862,4.688-2.625,11.601-1.901,14.996c-0.265-0.273-0.526-0.55-0.793-0.822c-4.676-4.772-9.63-9.271-14.837-13.453
			c2.321-1.524,11.796-8.152,12.651-15.334c0.338-2.813-0.632-5.718-3.858-8.417c-3.029-2.546-5.492-0.597-7.238,3.139
			c-2.696,5.741-3.689,15.672-2.483,19.88c-1.329-1.052-2.67-2.09-4.032-3.1l-2.621-1.983c-0.891-0.637-1.81-1.236-2.713-1.856
			c-1.631-1.09-3.236-2.219-4.881-3.285c1.228-0.892,11.59-8.638,12.012-16.386c0.157-2.828-0.997-5.666-4.389-8.152
			c-3.186-2.347-5.519-0.244-7.022,3.596c-2.484,6.311-2.718,17.278-0.872,20.767c-0.103-0.066-0.204-0.134-0.307-0.2
			c-3.774-2.227-7.457-4.611-11.401-6.532c-1.227-0.672-2.471-1.309-3.723-1.93c1.545-1.801,9.162-11.12,7.919-18.434
			c-0.472-2.793-2.224-5.305-6.082-6.981c-3.626-1.585-5.437,0.981-6.054,5.059c-0.976,6.366,0.956,16.379,3.356,19.935
			c-4.193-2.036-8.502-3.822-12.863-5.468c0.62-1.366,4.558-10.459,2.273-16.268l0.001-0.015c-0.958-2.419-3.003-4.263-6.82-4.722
			c-3.725-0.452-4.321,2.781-3.411,6.883l-0.001,0.015c1.144,5.191,4.683,11.735,7.227,13.83c-1.913-0.715-3.835-1.406-5.76-2.083
			c-0.036-0.124-0.103-0.24-0.211-0.333c-3.505-3.056-14.671-6.497-20.967-5.652C592.215,448.533,590.27,450.095,591.248,453.383z"
			/>
		<path style="clip-path:url(#SVGID_00000058551578112629355790000005786117426544503473_);fill:#B8303F;" d="M601.783,400.438
			c1.083,8.354,5.768,11.992,11.509,13.129c9.468,1.882,21.861-3.017,25.797-4.723c0.177-0.084,0.322-0.205,0.434-0.347
			c2.703,1.508,5.397,3.034,8.072,4.595c-5.204-0.254-15.588,2.853-22.204,7.023l-0.015,0.018
			c-5.422,3.406-8.287,7.514-3.809,11.068c4.586,3.646,8.773,3.887,12.422,2.336l0.015-0.018
			c8.372-3.584,13.899-16.577,15.072-19.55c6.155,3.632,12.187,7.465,17.967,11.659c-6.354-0.106-20.928,6.417-28.128,13.363
			c-4.531,4.354-6.131,8.864-0.97,11.982c5.478,3.326,10.145,3.297,14.035,1.427c10.233-4.905,15.126-22.698,15.981-26.11
			c1.546,1.138,3.079,2.295,4.584,3.492c5.398,3.881,10.288,8.391,15.352,12.682c0.256,0.231,0.506,0.469,0.76,0.703
			c-6.059-0.479-21.233,6.21-28.626,13.343c-4.531,4.354-6.131,8.864-0.97,11.982c5.478,3.326,10.145,3.297,14.035,1.427
			c10.471-5.02,15.349-23.526,16.031-26.317c2.018,1.883,3.979,3.829,5.98,5.729c1.189,1.157,2.406,2.287,3.573,3.466l3.404,3.634
			c2.068,2.165,4.09,4.373,6.077,6.611c-5.792-0.794-21.437,6.018-28.984,13.299c-4.531,4.354-6.131,8.865-0.97,11.982
			c5.478,3.326,10.145,3.297,14.035,1.427c10.789-5.172,15.64-24.663,16.082-26.526c6.763,7.633,13.059,15.677,18.856,24.061
			c0.462,0.666,0.912,1.34,1.369,2.011c-5.211,0.489-15.012,4.949-20.975,9.948l-0.013,0.02c-4.912,4.107-7.198,8.564-2.281,11.481
			c5.036,2.994,9.217,2.668,12.623,0.639l0.013-0.02c7-4.194,10.716-15.563,11.961-20.117c6.485,9.694,12.383,19.834,17.174,30.366
			l0.028,0.062l0.005,0.01c0.274,0.588,0.974,0.843,1.562,0.568c0.588-0.274,0.843-0.974,0.568-1.562
			c-5.168-11.082-11.412-21.481-18.285-31.468c3.301-1.413,15.669-7.17,18.98-15.437l0.017-0.016
			c1.465-3.684,1.125-7.864-2.627-12.363c-3.658-4.394-7.698-1.432-10.976,4.068l-0.018,0.016
			c-3.944,6.596-6.777,16.808-6.517,22.091c-0.332-0.476-0.658-0.955-0.992-1.429c-5.868-8.318-12.223-16.292-19.034-23.852
			c3.862-1.725,19.729-9.383,22.768-19.978c1.194-4.148,0.444-8.754-3.75-13.6c-3.935-4.569-8.115-2.238-11.652,2.956
			c-5.455,7.977-9.371,22.671-8.582,29.294c-1.743-1.906-3.506-3.794-5.308-5.645l-3.459-3.622c-1.185-1.175-2.42-2.301-3.628-3.453
			c-2.187-2.037-4.326-4.126-6.54-6.131c2.064-1.042,19.538-10.165,22.063-21.716c0.926-4.216-0.117-8.764-4.613-13.332
			c-4.22-4.307-8.241-1.714-11.438,3.696c-5.275,8.885-8.302,25.324-6.375,31.021c-0.138-0.124-0.274-0.252-0.413-0.375
			c-5.134-4.269-10.091-8.754-15.554-12.605c-1.682-1.31-3.398-2.571-5.129-3.81c2.764-2.332,16.493-14.49,16.407-25.794
			c-0.028-4.316-2.052-8.522-7.445-11.983c-5.067-3.268-8.416,0.15-10.339,6.133c-3.02,9.337-2.557,24.868,0.185,30.801
			c-5.809-4.085-11.854-7.822-18.012-11.362c1.266-1.903,9.406-14.619,7.386-23.914l0.006-0.023
			c-0.852-3.871-3.476-7.143-9.106-8.766c-5.492-1.588-7.178,3.129-6.81,9.521l-0.006,0.023c0.455,8.087,4.181,18.793,7.497,22.563
			c-2.704-1.542-5.426-3.05-8.155-4.538c-0.024-0.195-0.096-0.386-0.237-0.552c-4.526-5.451-20.481-13.349-30.157-13.614
			C604.419,393.379,601.113,395.254,601.783,400.438z"/>
		<g style="clip-path:url(#SVGID_00000058551578112629355790000005786117426544503473_);">
			<path style="fill:#B8303F;" d="M636.5,335.119c-4.109-6.072-2.831-14.194-0.952-21.281c1.879-7.087,4.191-14.666,1.7-21.562
				c-2.977-8.241-12.219-13.504-13.659-22.146c-0.711-4.268,0.681-8.632,2.69-12.465c8.352-15.936,28.516-24.611,45.829-19.716
				c6.404,1.81,12.714,5.698,15.144,11.893c3.488,8.895-1.86,19.919,3.039,28.122c1.764,2.953,4.622,5.051,7.01,7.526
				c6.816,7.065,9.701,17.58,7.889,27.228c-1.812,9.648-8.135,18.258-16.569,23.281C676.561,343.18,646.227,349.491,636.5,335.119z"
				/>
			<polygon style="fill:#B75D3D;" points="656.771,371.788 660.89,307.083 652.652,292.495 644.757,291.122 644.757,289.234 
				652.823,290.264 649.219,277.134 650.935,277.134 654.883,292.495 660.89,302.964 663.979,270.698 667.927,262.632 
				669.3,264.176 665.352,270.698 671.188,268.467 671.188,270.698 666.039,271.9 666.382,318.068 679.597,302.106 679.597,292.495 
				680.799,292.495 680.799,302.106 685.261,295.756 686.119,297.472 681.485,304.337 687.321,302.621 687.321,304.337 
				679.083,306.139 667.069,323.388 667.755,371.788 			"/>
		</g>
		<path style="clip-path:url(#SVGID_00000058551578112629355790000005786117426544503473_);fill:#E64B2D;" d="M128.082,210.008
			c0,0-10.918-1.458-12.06,10.721C116.022,220.729,126.224,221.381,128.082,210.008z"/>
		<path style="clip-path:url(#SVGID_00000058551578112629355790000005786117426544503473_);fill:#E64B2D;" d="M275.062,332.413
			c0,0-10.918-1.458-12.06,10.721C263.002,343.134,273.204,343.787,275.062,332.413z"/>
		<path style="clip-path:url(#SVGID_00000058551578112629355790000005786117426544503473_);fill:#E64B2D;" d="M736.032,215.399
			c0,0-10.918-1.458-12.06,10.721C723.972,226.12,734.174,226.773,736.032,215.399z"/>
		<path style="clip-path:url(#SVGID_00000058551578112629355790000005786117426544503473_);fill:#E64B2D;" d="M650.786,354.054
			c0,0-10.918-1.458-12.06,10.721C638.727,364.776,648.929,365.428,650.786,354.054z"/>
		<path style="clip-path:url(#SVGID_00000058551578112629355790000005786117426544503473_);fill:#E64B2D;" d="M541.681,303.233
			c0,0-1.458,10.918,10.721,12.06C552.402,315.293,553.054,305.091,541.681,303.233z"/>
		<path style="clip-path:url(#SVGID_00000058551578112629355790000005786117426544503473_);fill:#E64B2D;" d="M639.924,212.097
			c0,0-1.458,10.918,10.721,12.06C650.645,224.157,651.297,213.955,639.924,212.097z"/>
		<path style="clip-path:url(#SVGID_00000058551578112629355790000005786117426544503473_);fill:#E64B2D;" d="M72.977,283.567
			c0,0-1.458,10.918,10.721,12.06C83.699,295.627,84.351,285.425,72.977,283.567z"/>
		<path style="clip-path:url(#SVGID_00000058551578112629355790000005786117426544503473_);fill:#E64B2D;" d="M11.043,243.97
			c0,0-1.458,10.918,10.721,12.06C21.764,256.03,22.417,245.828,11.043,243.97z"/>
		<path style="clip-path:url(#SVGID_00000058551578112629355790000005786117426544503473_);fill:#E64B2D;" d="M257.665,228.03
			c0,0-1.458,10.918,10.721,12.06C268.387,240.09,269.039,229.888,257.665,228.03z"/>
		<g style="clip-path:url(#SVGID_00000058551578112629355790000005786117426544503473_);">
			<path style="fill:#F77C2E;" d="M34.919,331.277c4.784-5.288,5.951-14.785,1.283-20.198c-0.972-1.128-2.158-2.064-2.883-3.399
				c-1.289-2.376-0.792-5.528,0.554-7.866c1.345-2.338,3.401-4.047,5.389-5.736c4.037-3.428,8.025-7.035,11.094-11.522
				s5.178-9.98,4.972-15.598c-0.206-5.618-3.041-11.275-7.683-13.589c-2.839-1.415-6.194-1.577-8.71-3.604
				c-4.227-3.405-4.211-10.177-4.668-15.931c-0.577-7.263-2.581-14.383-5.834-20.728c-1.644-3.207-3.671-6.29-6.47-8.299
				c-4.012-2.88-9.134-3.204-13.869-2.432c-6.868,1.12-13.57,4.502-18.18,10.232c-4.61,5.73-6.879,13.933-5.101,21.341
				c1.196,4.983,4.092,9.439,4.552,14.569c0.107,1.19,0.069,2.437-0.403,3.513c-1.315,3.004-4.995,3.22-7.94,3.967
				c-6.109,1.549-10.957,7.136-13.229,13.585c-2.272,6.449-2.247,13.644-1.171,20.461c0.429,2.718,1.078,5.531,2.755,7.577
				c3.713,4.526,11.094,3.78,14.267,8.781c3.125,4.924,0.314,12.73,4.025,17.132c2.72,3.227,7.372,2.754,11.19,4.043
				c6.479,2.188,11.016,8.492,17.924,9.902C22.901,338.728,30.551,336.105,34.919,331.277z"/>
			<polygon style="fill:#B75D3D;" points="5.322,365.801 7.752,307.845 -9.749,290.137 -16.068,293.893 -17.284,291.747 
				-10.478,287.99 -15.096,273.233 -13.638,271.892 -10.478,281.014 -8.776,273.233 -7.318,273.233 -9.505,284.771 -7.804,289.332 
				7.752,305.162 9.697,255.525 2.405,248.012 2.891,246.402 9.697,253.378 17.961,241.841 19.177,243.987 11.398,256.33 
				12.128,294.162 32.788,273.233 34.004,276.051 28.656,281.014 34.004,281.014 34.004,283.161 26.955,283.161 12.857,298.454 
				13.343,321.798 20.635,320.188 20.878,322.066 13.829,324.749 14.558,365.801 			"/>
		</g>
		<path style="clip-path:url(#SVGID_00000058551578112629355790000005786117426544503473_);fill:#B8303F;" d="M-25.259,366.55
			c16.886-9.382,38.104-12.974,55.6-4.788c17.497,8.185,28.714,30.285,20.91,47.955c15.773-17.266,45.877-18.549,63.062-2.688
			c17.184,15.861,18.312,45.969,2.365,63.072c11.014-11.812,36.63-6.362,50.284-3.088c43.115,10.338,54.393,53.575,53.789,92.986
			H-31.769L-25.259,366.55z"/>
		<path style="clip-path:url(#SVGID_00000058551578112629355790000005786117426544503473_);fill:#E64B2D;" d="M123.881,456.221
			c-0.594,4.583-3.164,6.579-6.314,7.203c-5.194,1.033-11.993-1.655-14.152-2.591c-0.097-0.046-0.177-0.112-0.238-0.19
			c-1.483,0.827-2.961,1.664-4.428,2.521c2.855-0.139,8.551,1.565,12.181,3.853l0.008,0.01c2.974,1.869,4.547,4.122,2.09,6.072
			c-2.516,2-4.813,2.132-6.814,1.282l-0.008-0.01c-4.593-1.966-7.625-9.094-8.269-10.725c-3.377,1.993-6.686,4.095-9.857,6.396
			c3.486-0.058,11.481,3.52,15.431,7.331c2.486,2.389,3.364,4.863,0.532,6.573c-3.005,1.825-5.566,1.809-7.7,0.783
			c-5.614-2.691-8.298-12.452-8.767-14.324c-0.848,0.624-1.689,1.259-2.515,1.915c-2.961,2.129-5.644,4.604-8.422,6.957
			c-0.141,0.127-0.278,0.257-0.417,0.386c3.324-0.263,11.649,3.407,15.705,7.32c2.486,2.389,3.364,4.863,0.532,6.573
			c-3.005,1.825-5.565,1.809-7.7,0.783c-5.745-2.754-8.421-12.907-8.795-14.438c-1.107,1.033-2.183,2.101-3.281,3.143
			c-0.652,0.635-1.32,1.255-1.96,1.901l-1.868,1.993c-1.134,1.188-2.244,2.399-3.334,3.627c3.178-0.436,11.761,3.302,15.901,7.296
			c2.486,2.389,3.364,4.863,0.532,6.573c-3.005,1.825-5.566,1.809-7.7,0.783c-5.919-2.837-8.58-13.53-8.823-14.552
			c-3.71,4.187-7.164,8.601-10.344,13.2c-0.253,0.365-0.5,0.735-0.751,1.103c2.859,0.268,8.236,2.715,11.507,5.457l0.007,0.011
			c2.695,2.253,3.949,4.698,1.251,6.299c-2.763,1.642-5.057,1.464-6.925,0.35l-0.007-0.011c-3.84-2.301-5.879-8.538-6.562-11.036
			c-3.558,5.318-6.793,10.881-9.421,16.659l-0.015,0.034l-0.003,0.005c-0.151,0.323-0.534,0.462-0.857,0.312
			c-0.323-0.151-0.462-0.534-0.312-0.857c2.835-6.08,6.261-11.785,10.032-17.263c-1.811-0.775-8.596-3.934-10.413-8.469
			l-0.009-0.009c-0.804-2.021-0.617-4.314,1.441-6.783c2.007-2.41,4.223-0.786,6.021,2.231l0.01,0.009
			c2.164,3.619,3.718,9.221,3.575,12.119c0.182-0.261,0.361-0.524,0.544-0.784c3.219-4.564,6.706-8.938,10.442-13.085
			c-2.119-0.947-10.823-5.148-12.49-10.96c-0.655-2.275-0.244-4.802,2.057-7.461c2.159-2.506,4.452-1.228,6.392,1.622
			c2.993,4.376,5.141,12.438,4.708,16.071c0.956-1.046,1.924-2.081,2.912-3.097l1.898-1.987c0.65-0.645,1.328-1.262,1.99-1.895
			c1.2-1.117,2.373-2.264,3.588-3.364c-1.132-0.572-10.719-5.577-12.104-11.914c-0.508-2.313,0.064-4.808,2.531-7.314
			c2.315-2.363,4.521-0.94,6.275,2.028c2.894,4.875,4.554,13.893,3.498,17.018c0.076-0.068,0.15-0.138,0.227-0.206
			c2.816-2.342,5.536-4.802,8.533-6.915c0.923-0.719,1.864-1.41,2.814-2.09c-1.516-1.28-9.048-7.949-9.001-14.151
			c0.016-2.368,1.125-4.675,4.085-6.574c2.78-1.793,4.617,0.082,5.672,3.365c1.657,5.122,1.403,13.643-0.102,16.898
			c3.187-2.241,6.503-4.291,9.882-6.233c-0.694-1.044-5.16-8.02-4.052-13.119l-0.003-0.013c0.467-2.124,1.907-3.919,4.995-4.809
			c3.013-0.871,3.938,1.716,3.736,5.223l0.003,0.013c-0.25,4.437-2.294,10.31-4.113,12.378c1.483-0.846,2.976-1.673,4.474-2.49
			c0.013-0.107,0.053-0.212,0.13-0.303c2.483-2.991,11.236-7.324,16.544-7.469C122.435,452.349,124.248,453.377,123.881,456.221z"/>
		<path style="clip-path:url(#SVGID_00000058551578112629355790000005786117426544503473_);fill:#FCB24F;" d="M88.041,376.431
			c-8.411-0.456-12.841,3.488-15.005,8.927c-3.575,8.967-1.014,22.044-0.053,26.225c0.05,0.189,0.143,0.354,0.263,0.49
			c-1.975,2.383-3.966,4.755-5.988,7.1c1.197-5.071,0.033-15.847-2.862-23.111l-0.015-0.018c-2.362-5.951-5.88-9.517-10.19-5.76
			c-4.42,3.845-5.42,7.919-4.559,11.789l0.015,0.018c1.999,8.885,13.769,16.685,16.479,18.379
			c-4.692,5.391-9.559,10.624-14.735,15.544c1.261-6.229-2.499-21.747-8.018-30.091c-3.457-5.248-7.6-7.643-11.605-3.135
			c-4.268,4.781-5.089,9.375-3.958,13.54c2.96,10.955,19.564,19.006,22.764,20.467c-1.401,1.313-2.818,2.609-4.268,3.872
			c-4.799,4.601-10.124,8.588-15.265,12.786c-0.274,0.21-0.553,0.412-0.83,0.619c1.575-5.871-2.24-22.009-7.908-30.577
			c-3.457-5.248-7.6-7.643-11.605-3.135c-4.268,4.781-5.089,9.375-3.959,13.541c3.029,11.21,20.338,19.376,22.958,20.555
			c-2.219,1.641-4.489,3.215-6.722,4.837c-1.354,0.959-2.687,1.949-4.058,2.882l-4.193,2.686c-2.505,1.639-5.044,3.225-7.607,4.772
			c1.836-5.551-2.015-22.175-7.799-30.921c-3.457-5.248-7.6-7.643-11.605-3.135c-4.268,4.781-5.089,9.375-3.959,13.54
			c3.121,11.551,21.403,19.869,23.154,20.643c-8.736,5.26-17.793,9.986-27.092,14.16c-0.739,0.333-1.484,0.653-2.226,0.98
			c0.468-5.213-2.133-15.663-5.962-22.436l-0.017-0.016c-3.144-5.578-7.11-8.637-10.874-4.333c-3.86,4.406-4.301,8.578-2.927,12.296
			l0.017,0.016c2.849,7.646,13.352,13.37,17.603,15.424c-10.713,4.611-21.757,8.565-32.985,11.358l-0.066,0.016l-0.011,0.003
			c-0.628,0.163-1.006,0.804-0.843,1.432c0.163,0.628,0.804,1.006,1.432,0.843c11.838-3.064,23.2-7.31,34.271-12.25
			c0.788,3.503,4.197,16.713,11.723,21.474l0.012,0.02c3.355,2.111,7.528,2.538,12.635-0.332c4.986-2.797,2.81-7.308-2.001-11.533
			l-0.012-0.02c-5.768-5.079-15.293-9.724-20.535-10.43c0.528-0.24,1.059-0.473,1.586-0.716c9.248-4.256,18.246-9.052,26.918-14.373
			c0.993,4.112,5.634,21.108,15.498,26.024c3.861,1.93,8.527,2.031,14.055-1.211c5.209-3.037,3.678-7.572-0.785-11.995
			c-6.85-6.816-20.586-13.342-27.242-13.772c2.192-1.367,4.369-2.757,6.517-4.191l4.191-2.742c1.371-0.952,2.703-1.961,4.056-2.938
			c2.401-1.78,4.845-3.502,7.22-5.314c0.648,2.219,6.438,21.062,17.336,25.648c3.976,1.678,8.639,1.48,13.949-2.109
			c5.004-3.365,3.185-7.792-1.552-11.92c-7.777-6.804-23.389-12.774-29.342-11.917c0.147-0.113,0.297-0.224,0.444-0.338
			c5.132-4.271,10.445-8.329,15.226-12.999c1.595-1.415,3.147-2.873,4.68-4.349c1.79,3.142,11.245,18.855,22.376,20.829
			c4.249,0.758,8.753-0.466,13.138-5.139c4.136-4.388,1.385-8.303-4.148-11.283c-8.631-4.67-23.987-7.042-30.32-5.426
			c5.075-4.968,9.85-10.232,14.451-15.643c1.641,1.591,12.662,11.911,22.169,11.616l0.021,0.01
			c3.962-0.133,7.657-2.118,10.277-7.357c2.562-5.111-1.77-7.627-8.122-8.429l-0.021-0.01c-8.035-1.025-19.24,0.69-23.551,3.263
			c2.008-2.378,3.987-4.78,5.947-7.193c0.196,0.012,0.397-0.024,0.586-0.132c6.184-3.458,16.855-17.708,18.878-27.174
			C94.501,380.309,93.26,376.716,88.041,376.431z"/>
		<path style="clip-path:url(#SVGID_00000058551578112629355790000005786117426544503473_);fill:#FFF2D7;" d="M469.403,529.68
			c-9.285-16.448-13.967-35.464-13.377-54.342c0.123-3.951,0.507-8.018,2.346-11.517c1.759-3.348,4.729-5.917,7.939-7.916
			c8.557-5.33,18.826-6.98,28.302-10.421c9.476-3.441,19.056-9.773,21.39-19.581c2.201-9.249-2.626-18.507-6.287-27.281
			c-3.661-8.774-5.922-19.835,0.293-27.029c8.221-9.517,23.453-6.487,29.25-17.648h-22.691c-11.666,0.32-28.853,12.771-29.88,27.08
			c-0.625,8.708,2.639,18.113-1.425,25.84c-4.292,8.16-14.598,10.528-23.556,12.71c-9.842,2.397-19.49,5.592-28.817,9.545
			c-9.393,3.981-18.667,8.885-25.528,16.435c-5.592,6.152-9.309,13.768-12.383,21.493c-7.427,18.664-11.571,38.852-10.092,58.885
			L469.403,529.68z"/>
		<path style="clip-path:url(#SVGID_00000058551578112629355790000005786117426544503473_);fill:#B8303F;" d="M255.377,485.977
			c3.436-2.155,7.497-0.368,10.91,1.435c-5.408-9.74-5.158-40.775,13.068-35.896c7.946,2.127,9.635,12.341,9.59,19.295
			c6.224-4.994,15.348-12.315,23.655-7.385c9.34,5.544,6.251,20.007,0.516,27c3.359-1.922,7.538,0.23,9.256,3.877
			c1.718,3.647,1.412,8.264,0.237,12.35c-1.267,4.406-3.365,8.099-6.07,11.072h-49.035c-7.107-4.993-12.852-11.821-15.408-19.973
			C250.662,493.182,250.989,488.729,255.377,485.977z"/>
		<path style="clip-path:url(#SVGID_00000058551578112629355790000005786117426544503473_);fill:#F77C2E;" d="M307.424,499.182
			c-3.487-6.272-7.05-12.777-7.725-19.922c-0.675-7.145,2.324-15.156,8.861-18.118c6.537-2.962,15.909,1.937,15.408,9.096
			c-0.94-5.673,0.125-12.109,4.444-15.906c4.318-3.798,12.287-3.299,14.79,1.878c0.797-12.102,7.985-22.776,15.578-32.233
			c7.424-9.247,18.15-18.859,29.593-15.746c7.205,1.96,12.28,8.751,14.301,15.939c2.021,7.188,1.517,14.812,0.997,22.261
			c6.203-4.065,15.1-4.525,20.736,0.296c5.636,4.82,5.901,15.158-0.346,19.155c7.932-3.626,17.76,1.245,22.235,8.731
			c4.475,7.486,4.464,16.696,3.744,25.388L307.424,499.182z"/>
		<path style="clip-path:url(#SVGID_00000058551578112629355790000005786117426544503473_);fill:#B8303F;" d="M531.092,443.082
			c-2.363-1.482-5.156-0.253-7.504,0.987c3.72-6.699,3.548-28.043-8.988-24.688c-5.465,1.463-6.626,8.487-6.595,13.27
			c-4.281-3.435-10.556-8.47-16.269-5.079c-6.424,3.813-4.299,13.76-0.355,18.57c-2.31-1.322-5.184,0.158-6.366,2.666
			c-1.182,2.508-0.971,5.684-0.163,8.494c0.871,3.031,2.314,5.571,4.175,7.615h33.724c4.888-3.434,8.839-8.13,10.597-13.736
			C534.334,448.037,534.11,444.974,531.092,443.082z"/>
		<path style="clip-path:url(#SVGID_00000058551578112629355790000005786117426544503473_);fill:#FCB448;" d="M569.572,348.787
			c-1.673-1.05-3.651-0.179-5.314,0.699c2.634-4.744,2.512-19.86-6.365-17.484c-3.87,1.036-4.693,6.011-4.671,9.398
			c-3.032-2.433-7.476-5.999-11.522-3.597c-4.549,2.7-3.044,9.745-0.251,13.151c-1.636-0.936-3.672,0.112-4.508,1.888
			c-0.837,1.776-0.688,4.025-0.116,6.015c0.617,2.146,1.639,3.945,2.956,5.393h23.884c3.462-2.432,6.26-5.758,7.505-9.728
			C571.868,352.296,571.709,350.127,569.572,348.787z"/>
	</g>
</g>
</svg>
