<svg xmlns="http://www.w3.org/2000/svg" viewBox="0 0 1024 768"><defs><style>.cls-1{fill:#fe5401;}.cls-2{fill:#048b9f;}</style></defs><g id="Capa_3" data-name="Capa 3"><path class="cls-1" d="M557.36,441.76q6.79-10.33,6.79-24.63,0-21.76-10.54-34.64t-33-12.86h-47A15.57,15.57,0,0,0,458,385.2v79.18l-35.28-88a10.57,10.57,0,0,0-10.07-6.62h-6.69a43.66,43.66,0,0,0,14.41-32.55V260.44a3.66,3.66,0,0,0-2.35-3.5,3.52,3.52,0,0,0-4.33,1.78l-22.81,46.85a14.35,14.35,0,0,1-9.5,7.83A14,14,0,0,1,365.62,306l-23.16-47.23a3.56,3.56,0,0,0-4.37-1.79,3.68,3.68,0,0,0-2.35,3.53v76.44a44.14,44.14,0,0,0,14.75,32.92h-6.74l0,.1a11.6,11.6,0,0,0-11.19,7.19L299,458.79V381.86a12.22,12.22,0,0,0-12.22-12.23h-7.23a12.23,12.23,0,0,0-11.15,7.21l-35,77.9-35.06-77.9a12.22,12.22,0,0,0-11.15-7.21h-7.43a12.22,12.22,0,0,0-12.22,12.23V499a12.23,12.23,0,0,0,12.22,12.23h2.91A12.23,12.23,0,0,0,194.84,499V435.92a3.62,3.62,0,0,1,6.92-1.49l20.43,45.22a12.24,12.24,0,0,0,11.15,7.2h0a12.23,12.23,0,0,0,11.15-7.22l20.23-45.09a3.62,3.62,0,0,1,6.93,1.48v57.87A17.37,17.37,0,0,0,289,511.26h10v-.07a13.81,13.81,0,0,0,11.9-8.59l41.2-102.24a11.61,11.61,0,0,1,10.65-7.28l30.36-.31a11.61,11.61,0,0,1,11,7.46l39.16,102.15a13.82,13.82,0,0,0,12.9,8.88h.19a12.82,12.82,0,0,0,1.65-.11v.11h9.95a17.41,17.41,0,0,0,17.4-17.41v-24.6a4.84,4.84,0,0,1,4.84-4.84H506.8c3.78,0,6.49.66,8.11,2s3.11,3.6,4.46,6.82L531.43,503a13.2,13.2,0,0,0,12.23,8.25h0a13.2,13.2,0,0,0,12.26-18.09l-8.59-21.5a57.53,57.53,0,0,0-4-8.8,25.15,25.15,0,0,0-5.17-6.15A38.12,38.12,0,0,0,557.36,441.76Zm-27.05-7.14q-6.07,5.16-16.82,5.16H492.54a7.22,7.22,0,0,1-7.22-7.22V401.48a7.22,7.22,0,0,1,7.22-7.22h22.57q10.74,0,16,5.5t5.27,17.37Q536.39,429.44,530.31,434.62Z"/><path class="cls-2" d="M582.22,392.5h17.25a11.44,11.44,0,0,1,11.44,11.44v95.88a11.44,11.44,0,0,0,11.43,11.44h4.49a11.44,11.44,0,0,0,11.43-11.44V403.94A11.44,11.44,0,0,1,649.7,392.5h17a11.43,11.43,0,0,0,11.43-11.43h0a11.44,11.44,0,0,0-11.43-11.44H582.22a11.44,11.44,0,0,0-11.44,11.44h0A11.44,11.44,0,0,0,582.22,392.5Z"/><rect class="cls-2" x="693.18" y="369.63" width="27.36" height="141.63" rx="13.68"/><path class="cls-2" d="M829.16,383.31v65.45a4.54,4.54,0,0,1-8.34,2.49L771.4,375.81A13.67,13.67,0,0,0,760,369.63h-2.64a13.67,13.67,0,0,0-13.68,13.68V497.58a13.68,13.68,0,0,0,13.68,13.68h0A13.69,13.69,0,0,0,771,497.58V432.13a4.54,4.54,0,0,1,8.33-2.49l49.42,75.43a13.68,13.68,0,0,0,11.44,6.19h2.64a13.68,13.68,0,0,0,13.68-13.68V383.31a13.67,13.67,0,0,0-13.68-13.68h0A13.67,13.67,0,0,0,829.16,383.31Z"/></g></svg>