<svg width="456" height="641" viewBox="0 0 456 641" fill="none" xmlns="http://www.w3.org/2000/svg">
<path d="M342.774 300.962L431.524 522.334C449.989 561.552 475.844 639.988 431.549 639.988C430.173 640.17 428.787 640.262 427.399 640.265H426.921C419.887 640.262 413.019 638.125 407.225 634.136C401.432 630.148 396.984 624.496 394.469 617.927L295.959 360.959C293.822 355.374 290.023 350.58 285.074 347.224C280.126 343.868 274.266 342.112 268.287 342.192L191.914 342.972C186.138 343.033 180.51 344.806 175.741 348.066C170.972 351.325 167.277 355.926 165.123 361.286L61.4805 618.48C59.026 624.531 54.9156 629.768 49.6209 633.59C44.3261 637.412 21.9016 643.385 7.64678 630.807C-13.7356 611.94 14.7743 544.522 31.545 508.272L115.968 302.924C118.239 297.386 122.158 292.681 127.193 289.445C132.229 286.21 138.137 284.601 144.118 284.837V284.585H161.073C149.405 274.173 140.069 261.413 133.674 247.142C127.28 232.871 123.972 217.41 123.968 201.772V9.48012C123.917 7.57095 124.458 5.69272 125.516 4.10293C126.574 2.51315 128.098 1.28964 129.879 0.600079C131.946 -0.122411 134.205 -0.0632792 136.23 0.766362C138.256 1.596 139.907 3.13865 140.873 5.10294L199.134 123.914C202.67 131.038 208.512 136.755 215.711 140.135C222.909 143.515 231.04 144.359 238.78 142.53C243.975 141.225 248.815 138.781 252.948 135.374C257.082 131.967 260.405 127.683 262.678 122.833L320.058 4.97719C321.009 3.02517 322.644 1.49057 324.652 0.665026C326.66 -0.160522 328.902 -0.219471 330.951 0.499434C332.724 1.17846 334.243 2.3889 335.302 3.96505C336.36 5.54121 336.905 7.40601 336.862 9.30401V202.426C336.911 217.855 333.707 233.121 327.462 247.23C321.216 261.338 312.067 273.972 300.613 284.309H317.442C322.858 284.173 328.187 285.695 332.714 288.672C337.241 291.648 340.751 295.936 342.774 300.962Z" fill="#FD7326"/>
</svg>
