<?xml version="1.0" encoding="UTF-8"?>
<svg id="Capa_1" data-name="Capa 1" xmlns="http://www.w3.org/2000/svg" viewBox="0 0 371.92 342.14">
  <g>
    <path d="M291.81,81.12c13.88-2.54,19.12-19.75,8.94-29.53-1.29-1.24-2.59-2.45-3.93-3.65-5.21-4.7-10.77-9.09-16.68-13.18C205.27-17,102.24,1.84,50.49,76.73,19.82,121.13,13.94,175.43,29.86,223.05c2.46,7.37,9.95,11.83,17.6,10.43h0c9.31-1.7,15-11.26,11.98-20.23-12.98-38.61-8.2-82.65,16.74-118.75C116.5,36.14,194.89,19.75,254.89,55.61l36.93,25.52h0Z" style="fill: #1a73e8;"/>
    <path d="M161.55,212.57h0c8.62-1.58,14.33-9.84,12.76-18.46l-16.18-88.55,133.69-24.44-36.93-25.52-118.08,21.59c-8.62,1.58-14.33,9.84-12.75,18.46l19.03,104.16c1.58,8.62,9.84,14.33,18.46,12.76Z" style="fill: #1a73e8;"/>
  </g>
  <g>
    <path d="M325.04,107.33h0c-9.32,1.7-15.01,11.28-11.97,20.26,13.09,38.68,8.36,82.88-16.65,119.08-40.38,58.44-118.99,74.8-179.02,38.66l-35.79-25.82-1.13,.21c-13.87,2.53-19.12,19.7-8.98,29.5,1.32,1.27,2.66,2.53,4.02,3.76,5.27,4.77,10.93,9.26,16.94,13.41,74.89,51.75,177.92,32.9,229.66-41.97,30.77-44.53,36.59-99,20.5-146.7-2.48-7.35-9.95-11.79-17.58-10.39Z" style="fill: #2d2d2d;"/>
    <line x1="286.75" y1="82.06" x2="286.77" y2="82.07" style="fill: #2d2d2d;"/>
    <path d="M245.74,246.11l-19.03-104.16c-1.58-8.62-9.84-14.33-18.46-12.76h0c-8.62,1.58-14.33,9.84-12.76,18.46l16.18,88.55-132.95,23.82,36.16,26.14,118.11-21.6c8.62-1.58,14.33-9.84,12.75-18.46Z" style="fill: #2d2d2d;"/>
  </g>
</svg>